<svg xmlns="http://www.w3.org/2000/svg" width="185.743" height="51.718" viewBox="0 0 185.743 51.718"><g transform="translate(-1263 -214.848)"><g transform="translate(1263 214.998)"><path d="M0,0H7.33l8.415,8.36L7.33,16.527H0L8.136,8.36Z" transform="translate(52.046 17.003) rotate(180)" fill="#fff" stroke="#fff" stroke-linecap="round" stroke-linejoin="round" stroke-width="1"/><g transform="translate(0 0)"><rect width="33" height="33" rx="1" transform="translate(0 0.002)" fill="#0253e1"/><path d="M44.249,38.04h7.33l8.415,8.36-8.415,8.167h-7.33L52.385,46.4Z" transform="translate(-30.361 -25.339)" fill="#fff" stroke="#fff" stroke-linecap="round" stroke-linejoin="round" stroke-width="1"/></g></g><path d="M20.807.092a34.148,34.148,0,0,1-7.232.941A13.866,13.866,0,0,1,8.748.338a7.64,7.64,0,0,1-2.979-1.95A8.806,8.806,0,0,1,3.961-4.884a32.49,32.49,0,0,1-1.233-10q0-10.131,2.958-13.4,2.424-2.734,7.4-2.734a36.648,36.648,0,0,1,7.725.941l-.123,2.421a36.951,36.951,0,0,0-6.862-.852,10.531,10.531,0,0,0-4.006.605,6.271,6.271,0,0,0-2.3,1.614,6.67,6.67,0,0,0-1.335,2.8,29.823,29.823,0,0,0-.822,7.62A59.227,59.227,0,0,0,5.645-9.03a14.465,14.465,0,0,0,1.109,4.1A5.213,5.213,0,0,0,9.179-2.284a10.018,10.018,0,0,0,4.438.807,37.025,37.025,0,0,0,7.067-.852ZM38.764-1.656,40-1.791l.082,2.2a60.187,60.187,0,0,1-7.848.628q-4.438-.045-6.2-2.869t-1.767-8.7q0-11.744,8.464-11.744,4.068,0,6.081,2.533t2.013,8.091L40.736-9.5H26.765q0,4.124,1.294,6.119T32.5-1.387Q35.641-1.387,38.764-1.656Zm-12-10.086H38.353q0-4.438-1.335-6.32a4.875,4.875,0,0,0-4.273-1.883A5.31,5.31,0,0,0,28.286-18Q26.765-16.046,26.765-11.742ZM45.872.585V-21.828H48.3V-18.6a22.057,22.057,0,0,1,3.719-2.241,16.481,16.481,0,0,1,4.047-1.434v2.69a21.6,21.6,0,0,0-3.7,1.233,27.982,27.982,0,0,0-3,1.457l-1.068.672V.585ZM70.2-19.452H63.335V-8.38a17.621,17.621,0,0,0,.575,5.693q.575,1.345,2.712,1.345l3.78-.314L70.567.63a27.546,27.546,0,0,1-4.15.448q-3.123,0-4.335-1.681T60.87-7.036V-19.452H57.829v-2.376H60.87v-7.038h2.465v7.038H70.2ZM68.351,9.036V4.643c1.452,0,3.774-.263,4.308-.741s.8-1.539.8-3.183L73.5-31.018h4.52v32.1q0,4.8-1.849,6.365C74.939,8.489,71.446,9.036,68.351,9.036ZM97.284-21.828h4.438V.585H97.284V-.8a10.6,10.6,0,0,1-5.547,1.883q-4.232,0-5.67-2.488t-1.438-8.719v-11.7h4.479v11.744a15.584,15.584,0,0,0,.616,5.424Q90.34-3.27,92.6-3.27a9.2,9.2,0,0,0,4.068-.9l.616-.269Zm27.645-9.324V.585h-4.438V-.581a11.54,11.54,0,0,1-5.506,1.659q-4.027,0-5.9-2.645t-1.87-8.876q0-6.231,2.075-9.055t6.472-2.824a29.463,29.463,0,0,1,4.684.583v-9.413ZM119.751-4.077l.7-.314V-17.659a25.617,25.617,0,0,0-4.561-.448q-4.15,0-4.15,7.531,0,4.124.966,5.715a3.316,3.316,0,0,0,3.061,1.591A10.047,10.047,0,0,0,119.751-4.077Z" transform="translate(1323.814 246)"/><path d="M4.9-.353a8.8,8.8,0,0,1-1.847.222,3.519,3.519,0,0,1-1.315-.2A1.622,1.622,0,0,1,.963-.982,2.882,2.882,0,0,1,.576-2.027,8.872,8.872,0,0,1,.47-3.535,4.784,4.784,0,0,1,1.007-6.19a2.281,2.281,0,0,1,1.978-.75,8.414,8.414,0,0,1,1.925.261L4.871-5.615A10.984,10.984,0,0,0,3.28-5.76a1.79,1.79,0,0,0-.9.169,1.046,1.046,0,0,0-.4.643,6.873,6.873,0,0,0-.131,1.615,3.309,3.309,0,0,0,.266,1.581,1.144,1.144,0,0,0,1.064.44,11.428,11.428,0,0,0,1.7-.135ZM6.051-4.532A2.026,2.026,0,0,1,7.763-5.2a2.034,2.034,0,0,1,1.712.663,2.981,2.981,0,0,1,.513,1.862q0,2.544-2.225,2.544T5.538-2.675A2.96,2.96,0,0,1,6.051-4.532Zm1,2.95a.759.759,0,0,0,.716.348.747.747,0,0,0,.711-.348,2.3,2.3,0,0,0,.2-1.093,2.235,2.235,0,0,0-.2-1.083A.754.754,0,0,0,7.763-4.1a.754.754,0,0,0-.711.339,2.235,2.235,0,0,0-.2,1.083A2.346,2.346,0,0,0,7.047-1.582ZM12.231-.247h-1.3V-5.083h1.286v.271A2.387,2.387,0,0,1,13.363-5.2a1.575,1.575,0,0,1,1.209.455A3.621,3.621,0,0,1,16.2-5.2a1.483,1.483,0,0,1,1.33.556A3.269,3.269,0,0,1,17.9-2.868V-.247H16.6V-2.829a2.314,2.314,0,0,0-.135-.914.536.536,0,0,0-.542-.295,2.672,2.672,0,0,0-.754.135l-.145.048q.039.725.039,1.1V-.247h-1.3V-2.733a2.845,2.845,0,0,0-.126-1.011.533.533,0,0,0-.551-.295,2.14,2.14,0,0,0-.745.135l-.116.039ZM19.05,1.784V-5.083h1.286v.261a2.223,2.223,0,0,1,1.1-.377,1.728,1.728,0,0,1,1.441.585,3.256,3.256,0,0,1,.464,1.988,2.855,2.855,0,0,1-.513,1.949,2.223,2.223,0,0,1-1.683.546,4.418,4.418,0,0,1-.687-.058l-.116-.019V1.784Zm2.137-5.823a1.966,1.966,0,0,0-.725.145l-.116.048v2.534a5.582,5.582,0,0,0,.706.058.838.838,0,0,0,.769-.329A2.215,2.215,0,0,0,22.029-2.7Q22.029-4.038,21.187-4.038ZM24.311-.247V-5.083H25.6v.513A4.922,4.922,0,0,1,27.145-5.2v1.306q-.783.164-1.344.339l-.193.068v3.24Zm7.3-3.327v2.012a.771.771,0,0,0,.077.324.36.36,0,0,0,.242.131l-.039.977A3.664,3.664,0,0,1,31.106-.2a1.773,1.773,0,0,1-.595-.271,3.219,3.219,0,0,1-1.422.339q-1.5,0-1.5-1.586a1.31,1.31,0,0,1,.416-1.1A2.332,2.332,0,0,1,29.283-3.2l1.035-.077v-.3a.511.511,0,0,0-.135-.411.684.684,0,0,0-.435-.111l-1.818.077-.039-.9a7.528,7.528,0,0,1,1.968-.28,1.925,1.925,0,0,1,1.344.387A1.633,1.633,0,0,1,31.614-3.574ZM29.437-2.3a.525.525,0,0,0-.542.58q0,.532.474.532a3.132,3.132,0,0,0,.8-.116l.145-.039V-2.375Zm9.653-4.72v6.77H37.8v-.2a2.835,2.835,0,0,1-1.17.319,1.652,1.652,0,0,1-1.47-.609,3.492,3.492,0,0,1-.416-1.93,3.013,3.013,0,0,1,.5-1.925,1.836,1.836,0,0,1,1.5-.6,5.323,5.323,0,0,1,.861.1l.184.039V-7.017Zm-1.431,5.61.135-.029V-3.98a5.363,5.363,0,0,0-.948-.1q-.783,0-.783,1.393a2.4,2.4,0,0,0,.174,1.074.6.6,0,0,0,.575.319A3.355,3.355,0,0,0,37.659-1.408Zm3.695-.706a.838.838,0,0,0,.237.643.964.964,0,0,0,.653.2q.9,0,1.606-.058l.271-.029.019.958a8.583,8.583,0,0,1-2.012.271,1.973,1.973,0,0,1-1.586-.58A2.9,2.9,0,0,1,40.048-2.6q0-2.6,2.138-2.6,2.108,0,2.108,2.186l-.1.9ZM43.017-3.1a1.322,1.322,0,0,0-.184-.808.786.786,0,0,0-.643-.227.783.783,0,0,0-.648.237,1.339,1.339,0,0,0-.2.8ZM51.635-.353a8.8,8.8,0,0,1-1.847.222,3.519,3.519,0,0,1-1.315-.2A1.622,1.622,0,0,1,47.7-.982a2.882,2.882,0,0,1-.387-1.045A8.872,8.872,0,0,1,47.2-3.535a4.784,4.784,0,0,1,.537-2.655,2.281,2.281,0,0,1,1.978-.75,8.414,8.414,0,0,1,1.925.261l-.039,1.064a10.985,10.985,0,0,0-1.591-.145,1.79,1.79,0,0,0-.9.169,1.046,1.046,0,0,0-.4.643,6.872,6.872,0,0,0-.131,1.615,3.309,3.309,0,0,0,.266,1.581,1.144,1.144,0,0,0,1.064.44,11.428,11.428,0,0,0,1.7-.135Zm.967.106V-5.083h1.286v.513A4.922,4.922,0,0,1,55.436-5.2v1.306q-.783.164-1.344.339l-.193.068v3.24Zm4.662-1.867a.838.838,0,0,0,.237.643.964.964,0,0,0,.653.2q.9,0,1.606-.058l.271-.029.019.958a8.583,8.583,0,0,1-2.012.271,1.973,1.973,0,0,1-1.586-.58A2.9,2.9,0,0,1,55.958-2.6q0-2.6,2.138-2.6Q60.2-5.2,60.2-3.013l-.1.9ZM58.927-3.1a1.322,1.322,0,0,0-.184-.808.786.786,0,0,0-.643-.227.783.783,0,0,0-.648.237,1.339,1.339,0,0,0-.2.8ZM56.616-6.543l2.437-.987.387,1.112L56.906-5.7Zm8.627-.474v6.77H63.957v-.2a2.835,2.835,0,0,1-1.17.319,1.652,1.652,0,0,1-1.47-.609A3.492,3.492,0,0,1,60.9-2.67a3.013,3.013,0,0,1,.5-1.925,1.836,1.836,0,0,1,1.5-.6,5.323,5.323,0,0,1,.861.1l.184.039V-7.017Zm-1.431,5.61.135-.029V-3.98a5.363,5.363,0,0,0-.948-.1q-.783,0-.783,1.393a2.4,2.4,0,0,0,.174,1.074.6.6,0,0,0,.575.319A3.355,3.355,0,0,0,63.812-1.408ZM66.442-.247V-5.083h1.3V-.247Zm0-5.455V-7.017h1.3V-5.7ZM71.617-3.98h-1.19V-2a3.961,3.961,0,0,0,.015.411.334.334,0,0,0,.106.208.4.4,0,0,0,.285.087l.735-.019.058,1.035a4.924,4.924,0,0,1-.987.145,1.475,1.475,0,0,1-1.19-.392,2.382,2.382,0,0,1-.319-1.446V-3.98H68.56v-1.1h.571V-6.427h1.3v1.344h1.19Zm1.1-.551A2.026,2.026,0,0,1,74.431-5.2a2.034,2.034,0,0,1,1.712.663,2.981,2.981,0,0,1,.513,1.862q0,2.544-2.225,2.544T72.207-2.675A2.96,2.96,0,0,1,72.719-4.532Zm1,2.95a.759.759,0,0,0,.716.348.747.747,0,0,0,.711-.348,2.3,2.3,0,0,0,.2-1.093,2.235,2.235,0,0,0-.2-1.083.754.754,0,0,0-.711-.339.754.754,0,0,0-.711.339,2.235,2.235,0,0,0-.2,1.083A2.346,2.346,0,0,0,73.716-1.582ZM79.316.43V-.731a.873.873,0,0,0,.561-.145.681.681,0,0,0,.174-.542V-6.824h1.325l.01,5.465A1.735,1.735,0,0,1,80.916.062,2.652,2.652,0,0,1,79.316.43Zm6.19-5.513h1.3V-.247H85.515V-.518a2.584,2.584,0,0,1-1.209.387,1.475,1.475,0,0,1-1.354-.556A3.683,3.683,0,0,1,82.6-2.549V-5.083h1.3V-2.53a2.747,2.747,0,0,0,.116.977q.116.261.561.261a2.358,2.358,0,0,0,.8-.135l.126-.039Zm6.606-1.934v6.77H90.825v-.2a2.835,2.835,0,0,1-1.17.319,1.652,1.652,0,0,1-1.47-.609,3.492,3.492,0,0,1-.416-1.93,3.013,3.013,0,0,1,.5-1.925,1.836,1.836,0,0,1,1.5-.6,5.323,5.323,0,0,1,.861.1l.184.039V-7.017ZM90.68-1.408l.135-.029V-3.98a5.363,5.363,0,0,0-.948-.1q-.783,0-.783,1.393a2.4,2.4,0,0,0,.174,1.074.6.6,0,0,0,.575.319A3.355,3.355,0,0,0,90.68-1.408ZM93.311-.247V-5.083h1.3V-.247Zm0-5.455V-7.017h1.3V-5.7Zm4.3.5a6.91,6.91,0,0,1,1.286.155l.261.058-.039,1.025q-.764-.077-1.132-.077a1.075,1.075,0,0,0-.885.285,1.889,1.889,0,0,0-.218,1.078,1.941,1.941,0,0,0,.218,1.088A1.068,1.068,0,0,0,98-1.292l1.122-.077.039,1.035a8.906,8.906,0,0,1-1.577.2,1.833,1.833,0,0,1-1.543-.6,3.182,3.182,0,0,1-.469-1.939,3.064,3.064,0,0,1,.484-1.93A1.892,1.892,0,0,1,97.615-5.2ZM100.12-.247V-5.083h1.3V-.247Zm0-5.455V-7.017h1.3V-5.7Zm6.2,2.128v2.012a.771.771,0,0,0,.077.324.36.36,0,0,0,.242.131l-.039.977a3.664,3.664,0,0,1-.788-.068,1.773,1.773,0,0,1-.595-.271,3.219,3.219,0,0,1-1.422.339q-1.5,0-1.5-1.586a1.31,1.31,0,0,1,.416-1.1,2.332,2.332,0,0,1,1.277-.382l1.035-.077v-.3a.511.511,0,0,0-.135-.411.684.684,0,0,0-.435-.111l-1.818.077-.039-.9a7.528,7.528,0,0,1,1.968-.28,1.925,1.925,0,0,1,1.344.387A1.632,1.632,0,0,1,106.32-3.574ZM104.144-2.3a.525.525,0,0,0-.542.58q0,.532.474.532a3.132,3.132,0,0,0,.8-.116l.145-.039V-2.375Zm3.414,2.05V-5.083h1.3V-.247Zm0-5.455V-7.017h1.3V-5.7Zm5.968,1.828a15.4,15.4,0,0,0-1.678-.155,1.386,1.386,0,0,0-.619.087.3.3,0,0,0-.14.276.262.262,0,0,0,.189.261,7.375,7.375,0,0,0,.967.213,2.128,2.128,0,0,1,1.107.459A1.394,1.394,0,0,1,113.68-1.7q0,1.567-1.944,1.567a8.441,8.441,0,0,1-1.548-.174l-.309-.058.039-1.083a15.42,15.42,0,0,0,1.668.155,1.5,1.5,0,0,0,.638-.092.3.3,0,0,0,.169-.276.285.285,0,0,0-.179-.271,4.624,4.624,0,0,0-.929-.213,2.394,2.394,0,0,1-1.117-.426,1.316,1.316,0,0,1-.368-1.069,1.359,1.359,0,0,1,.522-1.161,2.181,2.181,0,0,1,1.344-.392,9.032,9.032,0,0,1,1.557.184l.319.058Z" transform="translate(1328.865 264.781)"/></g></svg>